<svg id="Capa_1" data-name="Capa 1" xmlns="http://www.w3.org/2000/svg" xmlns:xlink="http://www.w3.org/1999/xlink" viewBox="0 0 79.66 61.78"><defs><style>.cls-1{fill:#335657;}.cls-2{fill:url(#linear-gradient);}.cls-3{fill:#335258;}.cls-4{fill:url(#radial-gradient);}.cls-5{fill:url(#radial-gradient-2);}.cls-6{fill:url(#radial-gradient-3);}.cls-7{fill:url(#radial-gradient-4);}.cls-8{fill:url(#radial-gradient-5);}.cls-9{fill:url(#radial-gradient-6);}.cls-10{fill:url(#radial-gradient-7);}.cls-11{fill:url(#radial-gradient-8);}.cls-12{fill:url(#radial-gradient-9);}.cls-13{fill:#f6eb41;}.cls-14{fill:none;stroke:#000;stroke-linecap:round;stroke-linejoin:round;}.cls-15{fill:url(#linear-gradient-2);}</style><linearGradient id="linear-gradient" x1="-127.24" y1="229.43" x2="-115.53" y2="199.4" gradientTransform="translate(136.44 -172.37) rotate(-0.33)" gradientUnits="userSpaceOnUse"><stop offset="0.16" stop-color="#f9e200"/><stop offset="0.71" stop-color="#f9eb00"/></linearGradient><radialGradient id="radial-gradient" cx="-114.83" cy="198.5" r="3.44" gradientTransform="translate(132.91 -175.59) rotate(-0.33)" gradientUnits="userSpaceOnUse"><stop offset="0.51" stop-color="#ffff3c"/><stop offset="1" stop-color="#f9eb00"/></radialGradient><radialGradient id="radial-gradient-2" cx="-114.83" cy="198.51" r="3.43" xlink:href="#radial-gradient"/><radialGradient id="radial-gradient-3" cx="-114.83" cy="198.5" r="3.47" gradientTransform="translate(136.44 -172.37) rotate(-0.33)" xlink:href="#radial-gradient"/><radialGradient id="radial-gradient-4" cx="-114.01" cy="199.36" r="3.6" xlink:href="#radial-gradient"/><radialGradient id="radial-gradient-5" cx="-113.13" cy="200.3" r="3.67" xlink:href="#radial-gradient"/><radialGradient id="radial-gradient-6" cx="-112.34" cy="201.15" r="3.74" xlink:href="#radial-gradient"/><radialGradient id="radial-gradient-7" cx="-111.54" cy="202" r="3.82" xlink:href="#radial-gradient"/><radialGradient id="radial-gradient-8" cx="-110.75" cy="202.86" r="3.9" xlink:href="#radial-gradient"/><radialGradient id="radial-gradient-9" cx="-109.95" cy="203.71" r="3.98" xlink:href="#radial-gradient"/><linearGradient id="linear-gradient-2" x1="-119.62" y1="-391.81" x2="-119.51" y2="-437.73" gradientTransform="matrix(0.91, -0.3, 0.31, 0.93, 265.27, 373.27)" gradientUnits="userSpaceOnUse"><stop offset="0.04" stop-color="#6bbc2c"/><stop offset="0.38" stop-color="#a2d532"/><stop offset="0.92" stop-color="#ffff3c"/></linearGradient></defs><title>logo_atomo_2020</title><path class="cls-1" d="M33,51.19l-2,.73-.27-.59,1.88-1.09Zm-4,4.46h3.56V53.46h-2a1.72,1.72,0,0,0-.34.07,1.76,1.76,0,0,0-.42.17,1.44,1.44,0,0,0-.4.31,1.69,1.69,0,0,0-.3.49,2,2,0,0,0-.12.73ZM33.54,58h-1V56.66H29V58H28V55.24a3,3,0,0,1,.21-1.13,2.55,2.55,0,0,1,.58-.88,2.69,2.69,0,0,1,.89-.58,2.89,2.89,0,0,1,1.11-.21H33a.65.65,0,0,1,.2,0,.5.5,0,0,1,.17.11.71.71,0,0,1,.11.17.58.58,0,0,1,0,.19Z" transform="translate(-3.53 -3.22)"/><polygon class="cls-1" points="41.82 50.24 39.58 50.24 39.58 54.81 38.57 54.81 38.57 50.24 36.33 50.24 36.33 49.23 41.82 49.23 41.82 50.24"/><path class="cls-1" d="M56.46,54.7a1.53,1.53,0,0,0-.1-.54,1.17,1.17,0,0,0-.27-.42,1.27,1.27,0,0,0-.42-.27,1.51,1.51,0,0,0-.53-.09H53.77a1.53,1.53,0,0,0-.54.09,1.27,1.27,0,0,0-.42.27,1.17,1.17,0,0,0-.27.42,1.33,1.33,0,0,0-.1.54v1.07a1.42,1.42,0,0,0,.1.55,1,1,0,0,0,.27.41,1,1,0,0,0,.42.27,1.53,1.53,0,0,0,.54.1h1.36a1.53,1.53,0,0,0,.54-.1,1.17,1.17,0,0,0,.42-.27,1,1,0,0,0,.27-.41,1.63,1.63,0,0,0,.1-.55Zm1,1.07a2.39,2.39,0,0,1-.18.94,2.2,2.2,0,0,1-.48.74,2.33,2.33,0,0,1-.74.49,2.6,2.6,0,0,1-.93.17H53.77a2.62,2.62,0,0,1-.94-.17,2.33,2.33,0,0,1-.74-.49,2.2,2.2,0,0,1-.48-.74,2.39,2.39,0,0,1-.18-.94V54.7a2.37,2.37,0,0,1,.18-.93,2.11,2.11,0,0,1,.48-.74,2.33,2.33,0,0,1,.74-.49,2.42,2.42,0,0,1,.94-.17h1.37a2.4,2.4,0,0,1,.93.17,2.33,2.33,0,0,1,.74.49,2.11,2.11,0,0,1,.48.74,2.37,2.37,0,0,1,.18.93Z" transform="translate(-3.53 -3.22)"/><path class="cls-1" d="M70.56,58h-1V54.7l-1.8,3.16a.37.37,0,0,1-.18.19.58.58,0,0,1-.26.06.5.5,0,0,1-.24-.06.37.37,0,0,1-.18-.19L65.07,54.7V58h-1V52.88a.53.53,0,0,1,.1-.32.5.5,0,0,1,.27-.18.49.49,0,0,1,.17,0,.4.4,0,0,1,.15,0l.14.08a.69.69,0,0,1,.11.13l2.3,4,2.31-4a.47.47,0,0,1,.25-.21.53.53,0,0,1,.33,0,.5.5,0,0,1,.27.18.53.53,0,0,1,.1.32Z" transform="translate(-3.53 -3.22)"/><path class="cls-1" d="M82.18,54.7a1.33,1.33,0,0,0-.1-.54,1.17,1.17,0,0,0-.27-.42,1.33,1.33,0,0,0-.41-.27,1.57,1.57,0,0,0-.54-.09H79.49a1.53,1.53,0,0,0-.54.09,1.51,1.51,0,0,0-.42.27,1.17,1.17,0,0,0-.27.42,1.53,1.53,0,0,0-.1.54v1.07a1.63,1.63,0,0,0,.1.55,1,1,0,0,0,.27.41A1.17,1.17,0,0,0,79,57a1.53,1.53,0,0,0,.54.1h1.36a1.53,1.53,0,0,0,.54-.1,1.09,1.09,0,0,0,.42-.27,1,1,0,0,0,.27-.41,1.42,1.42,0,0,0,.1-.55Zm1,1.07a2.58,2.58,0,0,1-.17.94,2.22,2.22,0,0,1-.49.74,2.33,2.33,0,0,1-.74.49,2.52,2.52,0,0,1-.93.17H79.49a2.52,2.52,0,0,1-.93-.17,2.13,2.13,0,0,1-.74-.49,2.22,2.22,0,0,1-.49-.74,2.39,2.39,0,0,1-.18-.94V54.7a2.37,2.37,0,0,1,.18-.93,2.23,2.23,0,0,1,1.23-1.23,2.33,2.33,0,0,1,.93-.17h1.37a2.28,2.28,0,0,1,1.67.66,2.13,2.13,0,0,1,.49.74,2.56,2.56,0,0,1,.17.93Z" transform="translate(-3.53 -3.22)"/><path class="cls-2" d="M25.9,27.52a3.43,3.43,0,0,0-6.38-2.45L4.28,55A6.86,6.86,0,1,0,17,59.94Z" transform="translate(-3.53 -3.22)"/><path class="cls-3" d="M24.94,24.07a3.5,3.5,0,0,0-5.08,4.77l11.49,15A5.45,5.45,0,0,0,35.24,46a5.52,5.52,0,0,0,4.22-1.46,5.45,5.45,0,0,0-.22-8.13Z" transform="translate(-3.53 -3.22)"/><circle class="cls-4" cx="19.22" cy="23.57" r="3.44"/><circle class="cls-5" cx="19.23" cy="23.58" r="3.43"/><path class="cls-6" d="M22.77,30.25a3.45,3.45,0,0,1-2.21-.78h0a3.48,3.48,0,0,1-.49-4.88A3.47,3.47,0,0,1,25,24.1a3.46,3.46,0,0,1-1.85,6.13Zm0-6.87a3.41,3.41,0,0,0-2.14,6h0a3.41,3.41,0,0,0,4.79-.48,3.41,3.41,0,0,0-.48-4.79A3.41,3.41,0,0,0,22.74,23.38Z" transform="translate(-3.53 -3.22)"/><circle class="cls-7" cx="20.05" cy="24.43" r="3.6"/><path class="cls-3" d="M23.6,31.3A3.66,3.66,0,1,1,26.35,30,3.64,3.64,0,0,1,23.6,31.3Zm0-7.18a3.51,3.51,0,0,0-2.66,1.21,3.54,3.54,0,1,0,5-.36A3.52,3.52,0,0,0,23.57,24.12Z" transform="translate(-3.53 -3.22)"/><circle class="cls-8" cx="20.93" cy="25.36" r="3.67"/><path class="cls-3" d="M24.49,32.34a3.79,3.79,0,0,1-2.56-1,3.76,3.76,0,0,1,2.37-6.54,3.69,3.69,0,0,1,2.7,1,3.76,3.76,0,0,1-2.51,6.54Zm0-7.34H24.3a3.57,3.57,0,0,0-3.4,3.73,3.54,3.54,0,0,0,1.16,2.48A3.57,3.57,0,1,0,24.45,25Z" transform="translate(-3.53 -3.22)"/><circle class="cls-9" cx="21.73" cy="26.21" r="3.74"/><path class="cls-3" d="M25.29,33.29a3.84,3.84,0,0,1-2.7-1.07h0a3.88,3.88,0,0,1-.11-5.48A3.89,3.89,0,0,1,28,26.63a3.87,3.87,0,0,1-2.66,6.66ZM22.76,32a3.61,3.61,0,0,0,6.12-2.68A3.61,3.61,0,1,0,22.76,32Z" transform="translate(-3.53 -3.22)"/><circle class="cls-10" cx="22.53" cy="27.05" r="3.82"/><path class="cls-3" d="M26.09,34.25h0a4,4,0,0,1-2.81-1.17,4,4,0,1,1,5.63,0A3.93,3.93,0,0,1,26.09,34.25Zm0-7.64a3.66,3.66,0,0,0-2.58,6.24,3.63,3.63,0,0,0,2.58,1.09h0a3.69,3.69,0,0,0,2.56-1.07,3.61,3.61,0,0,0,1.08-2.58,3.65,3.65,0,0,0-3.68-3.68Z" transform="translate(-3.53 -3.22)"/><circle class="cls-11" cx="23.33" cy="27.9" r="3.9"/><path class="cls-3" d="M26.89,35.21h-.14a4.05,4.05,0,0,1-2.85-1.27h0a4.09,4.09,0,1,1,5.78.15A4,4,0,0,1,26.89,35.21Zm-2.72-1.54a3.72,3.72,0,0,0,5.25.15,3.71,3.71,0,1,0-5.25-.15Z" transform="translate(-3.53 -3.22)"/><circle class="cls-12" cx="24.13" cy="28.75" r="3.98"/><path class="cls-3" d="M27.7,36.18h-.24a4.13,4.13,0,0,1-2.91-1.38h0a4.21,4.21,0,0,1,.3-5.94,4.21,4.21,0,1,1,2.85,7.33Zm-.06-8a3.81,3.81,0,0,0-2.5,1,3.77,3.77,0,0,0-.26,5.32h0a3.76,3.76,0,1,0,2.76-6.29Z" transform="translate(-3.53 -3.22)"/><circle class="cls-13" cx="24.93" cy="29.6" r="4.07"/><path class="cls-3" d="M28.5,37.14h-.34a4.37,4.37,0,1,1,.34,0ZM28.44,29a3.75,3.75,0,0,0-2.47.93,3.82,3.82,0,0,0-.39,5.38h0A3.82,3.82,0,1,0,28.44,29Z" transform="translate(-3.53 -3.22)"/><circle class="cls-13" cx="25.73" cy="30.45" r="4.15"/><path class="cls-3" d="M29.3,38.11a4.48,4.48,0,0,1-3.45-1.6h0a4.44,4.44,0,1,1,6.83-5.68,4.45,4.45,0,0,1-3.38,7.28Zm-3-2a3.87,3.87,0,1,0,.5-5.45,3.87,3.87,0,0,0-.5,5.45Z" transform="translate(-3.53 -3.22)"/><circle class="cls-13" cx="26.53" cy="31.3" r="4.24"/><path class="cls-3" d="M30.1,39.07a4.54,4.54,0,0,1-3.59-1.71h0a4.56,4.56,0,1,1,6.4.72A4.5,4.5,0,0,1,30.1,39.07ZM27,37a3.93,3.93,0,1,0,.62-5.52A3.93,3.93,0,0,0,27,37Z" transform="translate(-3.53 -3.22)"/><circle class="cls-13" cx="27.33" cy="32.15" r="4.33"/><path class="cls-3" d="M30.9,40a4.65,4.65,0,0,1-3.74-1.83h0A4.69,4.69,0,1,1,30.9,40Zm-3.19-2.25a4,4,0,0,0,5.58.73,3.92,3.92,0,0,0,1.53-2.64A4,4,0,0,0,34,32.94a4,4,0,0,0-5.59-.73,4,4,0,0,0-.73,5.58Z" transform="translate(-3.53 -3.22)"/><circle class="cls-13" cx="28.13" cy="33" r="4.42"/><path class="cls-3" d="M31.71,41a4.91,4.91,0,0,1-3.9-2h0a4.79,4.79,0,0,1,4.57-7.6,4.76,4.76,0,0,1,3.15,1.89A4.81,4.81,0,0,1,31.71,41Zm-.07-8.85a4,4,0,0,0-3.22,6.45h0a4,4,0,1,0,3.85-6.4A4.46,4.46,0,0,0,31.64,32.17Z" transform="translate(-3.53 -3.22)"/><circle class="cls-13" cx="28.93" cy="33.84" r="4.51"/><path class="cls-3" d="M32.51,42a5,5,0,0,1-.86-.07,4.88,4.88,0,0,1-3.19-2h0a4.85,4.85,0,0,1-.85-3.67,4.91,4.91,0,0,1,5.67-4,4.83,4.83,0,0,1,3.2,2,4.93,4.93,0,0,1-4,7.78Zm-.07-9a4.11,4.11,0,0,0-4,3.42,4.07,4.07,0,0,0,.71,3.06h0a4.1,4.1,0,0,0,5.72,1,4.06,4.06,0,0,0,1.66-2.66A4.09,4.09,0,0,0,33.15,33,4.34,4.34,0,0,0,32.44,33Z" transform="translate(-3.53 -3.22)"/><circle class="cls-13" cx="29.74" cy="34.69" r="4.61"/><path class="cls-3" d="M33.3,43a5,5,0,0,1-4.19-2.19h0A5,5,0,1,1,33.3,43Zm-3.46-2.69a4.17,4.17,0,0,0,5.79,1.07,4.16,4.16,0,1,0-5.79-1.07Z" transform="translate(-3.53 -3.22)"/><circle class="cls-13" cx="30.54" cy="35.54" r="4.7"/><path class="cls-3" d="M34.11,43.94a5.17,5.17,0,0,1-4.35-2.32h0a5.17,5.17,0,0,1,1.45-7.17,5.18,5.18,0,0,1,7.17,1.45,5.18,5.18,0,0,1-4.27,8ZM30.55,41.1a4.22,4.22,0,1,0,1.18-5.86,4.23,4.23,0,0,0-1.18,5.86Z" transform="translate(-3.53 -3.22)"/><circle class="cls-13" cx="31.34" cy="36.39" r="4.8"/><path class="cls-3" d="M34.91,44.91a5.31,5.31,0,0,1-4.51-2.44h0A5.31,5.31,0,0,1,32,35.15a5.3,5.3,0,1,1,5.73,8.92A5.21,5.21,0,0,1,34.91,44.91Zm-3.65-3a4.3,4.3,0,1,0-.58-3.23,4.24,4.24,0,0,0,.58,3.23Z" transform="translate(-3.53 -3.22)"/><path class="cls-3" d="M35.71,45.89a5.43,5.43,0,1,1,5-7.32h0a5.43,5.43,0,0,1-3.2,7A5.25,5.25,0,0,1,35.71,45.89Zm-.07-9.79a4.55,4.55,0,0,0-1.49.27,4.36,4.36,0,1,0,5.6,2.57h0A4.36,4.36,0,0,0,35.64,36.1Z" transform="translate(-3.53 -3.22)"/><line class="cls-14" x1="21.07" y1="7.45" x2="32.14" y2="37.44"/><path class="cls-15" d="M40.77,38.54,28.67,6.1a4,4,0,1,0-7.74,2.36h0l9.59,33.46c0,.13.07.26.11.39a5.41,5.41,0,1,0,10.28-3.39C40.87,38.79,40.82,38.67,40.77,38.54Z" transform="translate(-3.53 -3.22)"/></svg>